<svg width="21" height="21" fill="none" xmlns="http://www.w3.org/2000/svg"><path d="M6.148 8.342a.763.763 0 0 0-1.071-.051.763.763 0 0 0-.051 1.071l3.852 4.184c.153.153.331.255.535.255h.026a.695.695 0 0 0 .536-.23l9.744-9.719c.306-.306.306-.79 0-1.071-.306-.281-.79-.307-1.071 0l-9.184 9.158-3.316-3.597Z" fill="#B53471"/><path d="M19.54 9.388a.752.752 0 0 0-.764.765c0 4.745-3.878 8.623-8.623 8.623-4.745 0-8.622-3.878-8.622-8.623 0-4.745 3.877-8.622 8.622-8.622a.752.752 0 0 0 .765-.766.752.752 0 0 0-.765-.765C4.566 0 0 4.566 0 10.153c0 5.587 4.566 10.153 10.153 10.153 5.587 0 10.153-4.566 10.153-10.153a.752.752 0 0 0-.765-.765Z" fill="#B53471"/></svg>