<svg width="27" height="35" fill="none" xmlns="http://www.w3.org/2000/svg"><path d="m2.636 28.956-.444.444.444.444a.56.56 0 1 1-.792.792l-.444-.444-.444.444a.558.558 0 0 1-.792 0 .56.56 0 0 1 0-.792l.444-.444-.444-.444a.56.56 0 1 1 .792-.792l.444.444.444-.444a.56.56 0 1 1 .792.792ZM1.236 12.6a.56.56 0 1 0 0-1.12.56.56 0 0 0 0 1.12Zm9.089 18.808a1.73 1.73 0 0 1-1.728 1.728 1.73 1.73 0 0 1-1.727-1.728 1.73 1.73 0 0 1 1.727-1.727 1.73 1.73 0 0 1 1.728 1.727Zm-1.12 0a.608.608 0 1 0-1.216.002.608.608 0 0 0 1.216-.002Zm17.675 1.649v1.383a.56.56 0 1 1-1.12 0v-.961a8.086 8.086 0 0 1-3.3-2.08 11.997 11.997 0 0 1-2.004-2.87c-.117.03-.233.06-.345.085-1.883.407-5.506.982-8.685.28-2.228-.494-4.97-1.922-8.15-4.244-.17-.125-.579-.282-.877-.396-.385-.148-.593-.23-.738-.347a1.197 1.197 0 0 1-.457-.947v-1.07c0-1.093 3.233-14.698 3.618-15.856.135-.428.567-.633.653-.669l.44-.201C6.826 2.179 9.603 0 12.88 0c4.014 0 7.28 3.266 7.28 7.28s-3.266 7.28-7.28 7.28a7.244 7.244 0 0 1-2.24-.356l.39 2.943a6.428 6.428 0 0 1 4.09-1.467c1.426 0 2.787.482 3.89 1.317 1.138-1.512 3.022-2.437 5.07-2.437.85 0 1.672.154 2.445.459a.56.56 0 1 1-.41 1.042 5.522 5.522 0 0 0-2.035-.381c-1.733 0-3.315.79-4.234 2.073.436.47.807 1.005 1.09 1.598a.56.56 0 1 1-1.01.483A5.35 5.35 0 0 0 15.12 16.8a5.313 5.313 0 0 0-4.902 3.25.56.56 0 1 1-1.032-.437 6.454 6.454 0 0 1 .85-1.444l-.594-4.475a7.284 7.284 0 0 1-3.836-6.297c-.894 3.447-3.262 13.665-3.282 14.496v1.067c0 .03.01.052.032.069.045.026.275.114.443.179.398.152.85.325 1.14.538 3.052 2.23 5.654 3.594 7.73 4.054 3.08.682 6.76.031 8.199-.28 1.414-.322 3.453-1.075 3.474-1.082a.56.56 0 0 1 .695.274c.23.456 1.034 1.71 1.983 2.025a.56.56 0 1 1-.355 1.062c-1.145-.38-1.986-1.517-2.381-2.15-.408.144-1.05.364-1.73.57a10.83 10.83 0 0 0 1.715 2.407c.87.91 2.03 1.598 3.187 1.888a.56.56 0 0 1 .424.543ZM6.72 7.28a6.167 6.167 0 0 0 6.16 6.16 6.167 6.167 0 0 0 6.16-6.16 6.167 6.167 0 0 0-6.16-6.16 6.167 6.167 0 0 0-6.16 6.16Zm9.97 18.49c-5.075 1.015-6.608-1.822-6.67-1.94a.56.56 0 0 0-.364-.293l-2.24-.56a.56.56 0 1 0-.271 1.086l2.013.504c.44.677 1.972 2.544 5.454 2.544.687 0 1.451-.072 2.298-.242a.56.56 0 0 0-.22-1.098ZM8.4 7.28c0-2.47 2.01-4.48 4.48-4.48 2.47 0 4.48 2.01 4.48 4.48 0 2.47-2.01 4.48-4.48 4.48-2.47 0-4.48-2.01-4.48-4.48Zm1.12 0a3.364 3.364 0 0 0 3.36 3.36 3.364 3.364 0 0 0 3.36-3.36 3.364 3.364 0 0 0-3.36-3.36 3.364 3.364 0 0 0-3.36 3.36Zm1.284 1.284L11.368 8a1.662 1.662 0 0 1-.168-.72c0-.259.064-.5.168-.72l-.564-.564a.56.56 0 1 1 .792-.792l.564.564c.219-.104.461-.168.72-.168.258 0 .5.064.72.168l.564-.564a.56.56 0 1 1 .792.792l-.564.564c.104.22.168.461.168.72 0 .259-.064.5-.168.72l.564.564a.56.56 0 1 1-.792.792l-.564-.564a1.662 1.662 0 0 1-.72.168c-.259 0-.5-.064-.72-.168l-.564.564a.558.558 0 0 1-.792 0 .56.56 0 0 1 0-.792Z" fill="#946E86"/></svg>