<svg width="34" height="34" fill="none" xmlns="http://www.w3.org/2000/svg"><path d="M28.9 2.959a.58.58 0 0 1 .566-.592.58.58 0 0 1 .567.592.58.58 0 0 1-.567.591.58.58 0 0 1-.566-.591ZM4.817 29.457a.55.55 0 0 0-.8 0l-.45.469-.45-.47a.55.55 0 0 0-.8 0 .61.61 0 0 0 0 .837l.449.47-.45.469a.61.61 0 0 0 0 .836.553.553 0 0 0 .801 0l.45-.47.45.47a.553.553 0 0 0 .8 0 .61.61 0 0 0 0-.836l-.449-.47.45-.469a.61.61 0 0 0 0-.836ZM33.96 9.247c-1.13-2.948-5.692-3.287-6.805-3.325-2.198-2.253-3.897-3.125-4.578-3.411L22.084.449a.564.564 0 0 0-.687-.43.593.593 0 0 0-.412.717l.567 2.367a.584.584 0 0 0 .39.424c.02.006 1.905.613 4.575 3.4.106.11.25.173.4.173 1.392.002 5.18.47 5.991 2.586.088.23.301.372.526.372.07 0 .142-.014.21-.043a.6.6 0 0 0 .316-.769ZM7.767 6.926c2.673-2.79 4.3-3.402 4.312-3.407a.581.581 0 0 0 .37-.418l.567-2.366a.593.593 0 0 0-.412-.717.563.563 0 0 0-.687.43l-.498 2.08c-.615.296-2.132 1.173-4.29 3.392-1.146.037-5.955.368-7.088 3.325a.601.601 0 0 0 .316.77c.068.028.14.042.21.042a.568.568 0 0 0 .526-.372C1.903 7.569 5.897 7.1 7.367 7.1c.15 0 .294-.063.4-.174Zm21.738 9.526-1.983 2.182h-7.427c-.652 0-1.249-.423-1.528-1.08l-1.007-3.81a.57.57 0 0 0-.546-.434.57.57 0 0 0-.546.435l-1.006 3.808c-.28.658-.876 1.081-1.528 1.081h-6.89L5.06 16.454a.55.55 0 0 0-.8-.023.61.61 0 0 0-.022.837l2.15 2.366a.555.555 0 0 0 .411.184h7.134c1.12 0 2.135-.72 2.586-1.837a.652.652 0 0 0 .024-.073l.47-1.78.47 1.78c.007.025.015.05.025.073.45 1.116 1.466 1.837 2.586 1.837h7.671a.556.556 0 0 0 .411-.184l2.15-2.366a.61.61 0 0 0-.02-.837.55.55 0 0 0-.802.022ZM8.471 22.668a.616.616 0 0 0-.042-.475.57.57 0 0 0-.365-.288c-.693-.172-2.235-.755-2.574-1.462a.56.56 0 0 0-.674-.3.593.593 0 0 0-.394.646c.022.161.545 3.99 2.158 6.99l1.237 2.535v2.816a.58.58 0 0 0 .566.592.58.58 0 0 0 .567-.592v-2.958a.613.613 0 0 0-.061-.268l-1.31-2.683c-.88-1.637-1.422-3.583-1.723-4.935.51.29 1.042.492 1.426.618-.127 1.902 1.718 3.894 1.95 4.136a.55.55 0 0 0 .802 0 .61.61 0 0 0 0-.837c-.523-.546-1.935-2.37-1.563-3.535Zm21.191-2.517a.56.56 0 0 0-.702.29c-.305.636-1.94 1.236-3.005 1.46a.57.57 0 0 0-.379.283.615.615 0 0 0-.047.484c.373 1.166-1.003 2.947-1.564 3.535a.61.61 0 0 0 .002.837.55.55 0 0 0 .8 0c.232-.242 2.061-2.216 1.953-4.11a9.549 9.549 0 0 0 1.713-.627c-.414 1.357-1.081 3.278-1.95 4.896l-1.581 2.661a.608.608 0 0 0-.086.312v2.958a.58.58 0 0 0 .567.591.58.58 0 0 0 .567-.591v-2.79l1.508-2.54c1.61-2.993 2.52-6.792 2.558-6.952a.597.597 0 0 0-.354-.697ZM16.883 31.65a.58.58 0 0 0-.566.591.58.58 0 0 0 .566.592.58.58 0 0 0 .567-.592.58.58 0 0 0-.567-.591ZM10.097 6.676a.593.593 0 0 0 .43.705l4.94 1.146 1.016 1.061a.553.553 0 0 0 .8 0l1.017-1.06 4.94-1.147a.593.593 0 0 0 .43-.705.567.567 0 0 0-.676-.45l-5.1 1.184a.559.559 0 0 0-.278.159l-.733.765-.732-.765a.56.56 0 0 0-.278-.16l-5.1-1.182a.57.57 0 0 0-.676.449Zm6.786 18.467a.58.58 0 0 0-.566.591v4.733a.58.58 0 0 0 .566.591.58.58 0 0 0 .567-.591v-4.733a.58.58 0 0 0-.567-.591Z" fill="#946E86"/></svg>