<svg width="32" height="35" fill="none" xmlns="http://www.w3.org/2000/svg"><path d="M20.763 28.475a.593.593 0 1 1-1.187 0 .593.593 0 0 1 1.187 0Zm5.165-6.352a.593.593 0 0 0-.839 0l-.47.47-.47-.47a.593.593 0 1 0-.84.839l.47.47-.47.47a.593.593 0 0 0 .84.84l.47-.471.47.47a.591.591 0 0 0 .839 0 .593.593 0 0 0 0-.838l-.47-.47.47-.471a.593.593 0 0 0 0-.839ZM31.44 8.305v5.932a2.97 2.97 0 0 1-2.966 2.966H14.237c-.772 0-1.424.498-1.67 1.187h1.67c.328 0 .594.265.594.593v1.78a.593.593 0 0 1-.594.593v8.602a2.079 2.079 0 0 1-2.076 2.076h-.593a2.079 2.079 0 0 1-2.076-2.076v-8.602a.593.593 0 0 1-.594-.593v-1.78c0-.328.266-.593.594-.593h1.84a2.971 2.971 0 0 1 2.905-2.373h14.238c.98 0 1.78-.798 1.78-1.78V8.305c0-.981-.8-1.78-1.78-1.78h-1.187v3.56a2.97 2.97 0 0 1-2.966 2.966h-5.339a2.97 2.97 0 0 1-2.966-2.966v-1.78a2.97 2.97 0 0 1 2.966-2.966h7.119V2.966c0-.981-.799-1.78-1.78-1.78h-11.79c-4.948 0-8.973 4.026-8.973 8.973v11.197h1.78c.328 0 .593.265.593.593v1.78a.593.593 0 0 1-.593.593v8.602A2.079 2.079 0 0 1 3.263 35h-.594a2.079 2.079 0 0 1-2.076-2.076v-8.602A.593.593 0 0 1 0 23.729v-1.78c0-.328.265-.593.593-.593h1.78V10.159C2.373 4.557 6.93 0 12.532 0h11.79a2.97 2.97 0 0 1 2.966 2.966V5.34h1.187a2.97 2.97 0 0 1 2.966 2.966ZM4.153 24.322H1.78v8.602c0 .49.399.89.89.89h.593c.49 0 .89-.4.89-.89v-8.602ZM26.102 6.525h-7.119c-.981 0-1.78.799-1.78 1.78v1.78c0 .981.799 1.78 1.78 1.78h5.339c.981 0 1.78-.799 1.78-1.78v-3.56ZM13.05 21.355h-2.373v8.603c0 .49.4.89.89.89h.593c.49 0 .89-.4.89-.89v-8.602Zm-3.56-8.304c-.98 0-1.78-.799-1.78-1.78s.8-1.78 1.78-1.78c.982 0 1.78.799 1.78 1.78s-.798 1.78-1.78 1.78Zm0-1.187a.594.594 0 1 0 0-1.187.594.594 0 0 0 0 1.187Z" fill="#946E86"/></svg>