<svg width="30" height="35" fill="none" xmlns="http://www.w3.org/2000/svg"><path d="M25.75 16.701c-.916 0-1.663.746-1.663 1.663 0 .918.747 1.664 1.664 1.664.917 0 1.663-.746 1.663-1.663 0-.918-.746-1.664-1.663-1.664Zm0 2.218a.555.555 0 1 1 .002-1.11.555.555 0 0 1-.001 1.11ZM5.952 15.754l.44-.44-.44-.439a.554.554 0 1 1 .784-.784l.44.44.44-.44a.554.554 0 0 1 .784.784l-.44.44.44.44a.554.554 0 1 1-.784.783l-.44-.44-.44.44a.553.553 0 0 1-.784 0 .554.554 0 0 1 0-.784ZM27.97 12.82a.554.554 0 1 1-1.11 0 .554.554 0 0 1 1.11 0Zm-5.072 8.26c-.87-.957-2.329-2.56-2.372-3.078-.048-.578.71-3.797 1.285-5.994.665-.65 3.386-3.78 3.386-11.387a.554.554 0 1 0-1.109 0c0 6.116-1.85 9.129-2.703 10.194l-.717-1.075a.554.554 0 1 0-.923.616l.971 1.456c-.338 1.293-1.372 5.352-1.295 6.282.07.835 1.05 1.967 2.657 3.734.408.447.802.88 1.128 1.266.456.54.507 1.547.127 2.509-.245.618-1.03 2.082-3.028 2.314-2.333.272-6.008 2.677-8.692 4.432-1.06.694-2.26 1.48-2.496 1.543h-1.11l-6.632.008c-.05-.037-.176-.194-.234-.848l4.478-1.429a.56.56 0 0 0 .264-.182L7.836 29v-.003c.756-.874 4.194-7.519 4.887-8.865a.556.556 0 0 0 .061-.239L13.328.57A.555.555 0 0 0 12.79 0c-.33.008-.562.233-.57.539l-.54 19.196c-1.983 3.846-4.277 8.11-4.664 8.52-.19.162-1.118.502-2.028.82H1.543a.554.554 0 0 0-.496.306l-.874 1.747a.7.7 0 0 0-.157.409l-.002.019-.002.026-.004.199c-.033 1.164.013 2.318.565 2.886.212.218.482.333.78.333h15.849a.554.554 0 1 0 0-1.109h-5.928c.282-.181.586-.38.946-.615 2.444-1.6 6.139-4.017 8.212-4.258 1.8-.21 3.269-1.334 3.931-3.009.535-1.35.413-2.777-.31-3.632-.335-.395-.739-.84-1.156-1.297ZM1.115 31.895l.001-.082.002-.061c.459-.332 2.318-.97 3.455-1.36.38-.13.707-.244 1.01-.35l-.462.575-4.006 1.278Zm13.574-12.041.555-1.664a.554.554 0 0 1 .526-.379h1.663a.554.554 0 1 1 0 1.11H16.17l-.428 1.284a.554.554 0 1 1-1.052-.351Zm3.926-11.194C16.33 4.658 16.86.708 16.885.542a.555.555 0 0 1 1.098.156c-.006.037-.495 3.752 1.595 7.41a.554.554 0 1 1-.963.55Zm11.018-4.157a.554.554 0 0 1-.555.554H26.86a.554.554 0 1 1 0-1.109h2.218c.306 0 .555.248.555.555ZM26.468 3.23a.554.554 0 0 1 0-.784l.832-.832a.554.554 0 1 1 .784.785l-.832.831a.553.553 0 0 1-.784 0Zm1.616 3.375a.554.554 0 1 1-.784.784l-.832-.832a.554.554 0 1 1 .784-.784l.832.832Z" fill="#946E86"/></svg>