<svg width="35" height="34" fill="none" xmlns="http://www.w3.org/2000/svg"><path d="M34.397 3.62H33.19V.604A.603.603 0 0 0 32.586 0h-2.414a.603.603 0 0 0-.603.603v3.018h-.604v-.604a.603.603 0 0 0-.603-.603h-3.017a.603.603 0 0 0-.604.603v.604h-4.224V2.005C20.517.9 19.617 0 18.512 0h-4.633a.603.603 0 0 0-.603.603c0 .983.48 1.85 1.21 2.401 0 .005-.003.009-.003.013v.604h-4.224v-.604a.603.603 0 0 0-.604-.603H6.638a.603.603 0 0 0-.604.603v.604h-.603V.603A.603.603 0 0 0 4.828 0H2.414a.603.603 0 0 0-.604.603v3.018H.603A.603.603 0 0 0 0 4.224v1.81c0 .334.27.604.603.604H1.81v3.017c0 .334.27.604.604.604h2.414c.333 0 .603-.27.603-.604V6.638h1.132l-.519 4.15a.623.623 0 0 0-.004.074c0 .521.225 1.018.617 1.362a.6.6 0 0 0 .362.149l4.587.273 1.653 6.063-1.778 7.707a.602.602 0 0 0 .588.74v6.034a.603.603 0 1 0 1.207 0v-6.035h2.305l-.486 2.918a.617.617 0 0 0-.009.1v3.017a.603.603 0 1 0 1.207 0v-2.967l.514-3.083a.598.598 0 0 0 .493-.436l.2-.771.2.77c.061.236.259.4.493.437l.514 3.082v2.968a.603.603 0 1 0 1.207 0v-3.018a.617.617 0 0 0-.009-.099l-.486-2.918h2.305v6.035a.603.603 0 1 0 1.207 0v-6.035a.602.602 0 0 0 .588-.739l-1.776-7.697 1.657-6.073 4.586-.273a.6.6 0 0 0 .361-.149 1.81 1.81 0 0 0 .618-1.362.65.65 0 0 0-.004-.075l-.52-4.15h1.128v3.018c0 .334.27.604.603.604h2.414c.334 0 .604-.27.604-.604V6.638h1.207c.333 0 .603-.27.603-.604v-1.81a.603.603 0 0 0-.603-.603Zm-13.88 3.018h4.828v1.701l-2.918-.486a.64.64 0 0 0-.1-.008h-1.81V6.638Zm5.431-3.017h1.81v.603h-1.81v-.603Zm-7.436-2.414a.8.8 0 0 1 .798.798v.409h-3.017a1.814 1.814 0 0 1-1.707-1.207h3.926Zm.798 2.414v4.224h-1.696A1.927 1.927 0 0 1 15.69 5.92v-2.3h3.62ZM9.66 6.638h4.913c.107.449.313.855.59 1.207h-2.486a.62.62 0 0 0-.098.008L9.66 8.34V6.638ZM7.241 3.62h1.81v.603h-1.81v-.603ZM1.207 5.43v-.603h.603v.603h-.603Zm3.017 3.62H3.017V1.208h1.207v7.845Zm17.949 16.897H18.75l-.667-2.566a.603.603 0 0 0-1.168 0l-.667 2.566h-3.422l1.532-6.638h6.281l1.533 6.638Zm-1.513-7.845h-6.315l-1.333-4.888 1.201.6a.604.604 0 0 0 .27.064h6.034a.604.604 0 0 0 .27-.063l1.207-.604-1.334 4.892Zm7.098-7.21a.607.607 0 0 1-.092.29l-4.77.284a.602.602 0 0 0-.235.062l-2.286 1.143h-2.272v-1.207a.603.603 0 1 0-1.206 0v1.207h-2.272l-2.233-1.116a.597.597 0 0 0-.282-.09l-4.77-.283a.607.607 0 0 1-.093-.29l.532-4.255h.675v2.414a.602.602 0 0 0 .702.595l3.572-.595h9.55l3.571.595a.603.603 0 0 0 .702-.595V6.638h.675l.532 4.255Zm4.225-1.841h-1.207V1.207h1.207v7.845Zm1.81-3.621h-.603v-.603h.603v.603Zm-6.211 14.306-.479.479.479.478a.603.603 0 1 1-.854.853l-.478-.478-.479.478a.601.601 0 0 1-.853 0 .603.603 0 0 1 0-.853l.479-.479-.479-.478a.603.603 0 1 1 .854-.853l.478.478.479-.478a.603.603 0 0 1 .853.853Zm-18.229-2.84a2.115 2.115 0 0 0-2.112 2.112c0 1.164.948 2.112 2.112 2.112a2.115 2.115 0 0 0 2.113-2.112 2.114 2.114 0 0 0-2.113-2.112Zm0 3.017a.906.906 0 0 1 0-1.81.906.906 0 0 1 0 1.81Zm8.75-4.828v1.81a.603.603 0 1 1-1.206 0v-1.81a.603.603 0 1 1 1.206 0Zm12.07 11.466a.603.603 0 1 1-1.208 0 .603.603 0 0 1 1.207 0Z" fill="#946E86"/></svg>