<svg xmlns="http://www.w3.org/2000/svg" viewBox="0 0 181.115 181.115" style="enable-background:new 0 0 181.115 181.115" xml:space="preserve"><path fill='#f1e8e8' d="M11.688 181.115a2.493 2.493 0 0 1-1.768-.732l-9.188-9.188a2.5 2.5 0 0 1-.084-3.447l13.332-14.699-9.001-9.001a6.07 6.07 0 0 1 0-8.574l7.404-7.404a6.16 6.16 0 0 1 .816-.687l-4.397-4.397a6.07 6.07 0 0 1-.001-8.573l10.66-10.659c1.146-1.146 2.668-1.776 4.287-1.776s3.142.631 4.287 1.776l17.536 17.536 75.716-75.716-17.536-17.536c-1.146-1.145-1.776-2.667-1.776-4.287s.631-3.142 1.776-4.287L114.41 8.805a6.022 6.022 0 0 1 4.287-1.776c1.618 0 3.141.63 4.286 1.775l4.398 4.399a6.07 6.07 0 0 1 .686-.818l7.404-7.404c1.146-1.146 2.668-1.776 4.287-1.776s3.143.631 4.287 1.777l9.001 9L167.745.65a2.5 2.5 0 0 1 3.447.084l9.188 9.188a2.5 2.5 0 0 1 .084 3.447l-13.332 14.699 9.001 9.001a6.07 6.07 0 0 1 0 8.574l-7.404 7.404a6.16 6.16 0 0 1-.816.687l4.397 4.397a6.07 6.07 0 0 1 .001 8.573l-10.66 10.659c-1.146 1.146-2.668 1.776-4.287 1.776s-3.142-.631-4.287-1.776l-17.536-17.536-75.716 75.716 17.536 17.536c1.146 1.145 1.776 2.667 1.776 4.287s-.631 3.142-1.776 4.287l-10.659 10.659a6.022 6.022 0 0 1-4.287 1.776 6.023 6.023 0 0 1-4.286-1.775l-4.398-4.399a6.07 6.07 0 0 1-.686.818l-7.404 7.404c-1.146 1.146-2.668 1.776-4.287 1.776s-3.143-.631-4.287-1.777l-9.001-9-14.699 13.332a2.488 2.488 0 0 1-1.679.648zm-5.737-11.773 5.821 5.821 12.755-11.568-7.008-7.008-11.568 12.755zm10.72-38.05c-.164 0-.48.04-.752.311l-7.404 7.404a1.065 1.065 0 0 0 0 1.503l32.09 32.089a1.059 1.059 0 0 0 1.503 0l7.404-7.405a1.066 1.066 0 0 0 .006-1.497l-32.096-32.096a1.063 1.063 0 0 0-.751-.309zm25.432 17.922 19.563 19.563a1.06 1.06 0 0 0 1.503-.001l10.659-10.659a1.059 1.059 0 0 0 0-1.502L24.5 107.287a1.06 1.06 0 0 0-1.503.001l-10.659 10.659a1.064 1.064 0 0 0 .001 1.503l29.764 29.764zm7.004-24.391 7.185 7.185 75.716-75.716-7.185-7.185-75.716 75.716zm69.591-112.796a1.06 1.06 0 0 0-.752.312l-10.659 10.659a1.059 1.059 0 0 0 0 1.502l49.328 49.328a1.06 1.06 0 0 0 1.503-.001l10.659-10.659a1.064 1.064 0 0 0-.001-1.503l-49.327-49.328a1.062 1.062 0 0 0-.751-.31zm23.849 16.338 21.146 21.146a1.059 1.059 0 0 0 1.503 0l7.404-7.404a1.065 1.065 0 0 0 0-1.503L140.51 8.515a1.059 1.059 0 0 0-1.503 0l-7.404 7.405a1.066 1.066 0 0 0-.006 1.497l10.95 10.948zm14.041-10.845 7.008 7.008 11.568-12.755-5.821-5.821-12.755 11.568z"/></svg>